<svg width="50" height="50" viewBox="0 0 50 50" fill="none" xmlns="http://www.w3.org/2000/svg">
<g clip-path="url(#clip0_362_6783)">
<path d="M48.7 1.85005C48.05 1.20005 47.15 0.800049 46.15 0.800049H3.85C1.87 0.800049 0.25 2.41005 0.25 4.40005V45.59C0.25 47.5801 1.87 49.2001 3.86 49.2001H46.15C48.13 49.2001 49.75 47.5801 49.75 45.59C49.75 23.24 49.75 26.54 49.75 4.40005C49.75 3.40005 49.35 2.50005 48.7 1.85005ZM48.25 45.59C48.25 46.75 47.31 47.7001 46.15 47.7001H3.86C2.7 47.7001 1.75 46.75 1.75 45.59V13.64H6.61C7.03 13.64 7.36 13.3 7.36 12.89V10.27C7.36 10.1 7.5 9.97005 7.67 9.97005H13.97C14.07 9.97005 14.17 10.02 14.23 10.1L16.41 13.31C16.55 13.52 16.78 13.64 17.03 13.64H48.25V45.59ZM48.25 12.14H17.43L15.47 9.26005C15.13 8.76005 14.57 8.47005 13.97 8.47005H7.67C6.67 8.47005 5.86 9.28005 5.86 10.27V12.14H1.75V4.40005C1.75 3.24005 2.7 2.30005 3.86 2.30005H46.15C47.31 2.30005 48.25 3.24005 48.25 4.40005V12.14Z" fill="#8753D4"/>
<path d="M46.15 2.30005H3.86C2.7 2.30005 1.75 3.24005 1.75 4.40005V12.14H5.86V10.27C5.86 9.28005 6.67 8.47005 7.67 8.47005H13.97C14.57 8.47005 15.13 8.76005 15.47 9.26005L17.43 12.14H48.25V4.40005C48.25 3.24005 47.31 2.30005 46.15 2.30005ZM29.12 10.12C27.52 10.12 26.22 8.82005 26.22 7.22005C26.22 5.62005 27.52 4.31005 29.12 4.31005C30.72 4.31005 32.03 5.62005 32.03 7.22005C32.03 8.82005 30.72 10.12 29.12 10.12ZM36.09 10.12C34.49 10.12 33.19 8.82005 33.19 7.22005C33.19 5.62005 34.49 4.31005 36.09 4.31005C37.69 4.31005 38.99 5.62005 38.99 7.22005C38.99 8.82005 37.69 10.12 36.09 10.12ZM43.05 10.12C41.46 10.12 40.16 8.82005 40.16 7.22005C40.16 5.62005 41.46 4.31005 43.05 4.31005C44.65 4.31005 45.96 5.62005 45.96 7.22005C45.96 8.82005 44.65 10.12 43.05 10.12Z" fill="#8753D4" fill-opacity="0.6"/>
<path d="M43.0502 4.31006C41.4602 4.31006 40.1602 5.62006 40.1602 7.22006C40.1602 8.82006 41.4602 10.1201 43.0502 10.1201C44.6502 10.1201 45.9602 8.82006 45.9602 7.22006C45.9602 5.62006 44.6502 4.31006 43.0502 4.31006ZM43.0502 8.62006C42.2802 8.62006 41.6602 7.99006 41.6602 7.22006C41.6602 6.44006 42.2802 5.81006 43.0502 5.81006C43.8302 5.81006 44.4602 6.44006 44.4602 7.22006C44.4602 7.99006 43.8302 8.62006 43.0502 8.62006Z" fill="#8753D4"/>
<path d="M36.0875 4.31006C34.4875 4.31006 33.1875 5.62006 33.1875 7.22006C33.1875 8.82006 34.4875 10.1201 36.0875 10.1201C37.6875 10.1201 38.9875 8.82006 38.9875 7.22006C38.9875 5.62006 37.6875 4.31006 36.0875 4.31006ZM36.0875 8.62006C35.3175 8.62006 34.6875 7.99006 34.6875 7.22006C34.6875 6.44006 35.3175 5.81006 36.0875 5.81006C36.8575 5.81006 37.4875 6.44006 37.4875 7.22006C37.4875 7.99006 36.8575 8.62006 36.0875 8.62006Z" fill="#8753D4"/>
<path d="M29.1188 4.31006C27.5188 4.31006 26.2188 5.62006 26.2188 7.22006C26.2188 8.82006 27.5188 10.1201 29.1188 10.1201C30.7188 10.1201 32.0287 8.82006 32.0287 7.22006C32.0287 5.62006 30.7188 4.31006 29.1188 4.31006ZM29.1188 8.62006C28.3488 8.62006 27.7188 7.99006 27.7188 7.22006C27.7188 6.44006 28.3488 5.81006 29.1188 5.81006C29.8888 5.81006 30.5288 6.44006 30.5288 7.22006C30.5288 7.99006 29.8888 8.62006 29.1188 8.62006Z" fill="#8753D4"/>
<path d="M42.2986 35.6601H39.5886V31.6101C39.5886 30.6601 38.8186 29.8901 37.8686 29.8901H25.7486V25.6201H28.6586C29.4286 25.6201 30.0486 25.0001 30.0486 24.2301V19.2501C30.0486 18.4801 29.4286 17.8501 28.6586 17.8501H21.3386C20.5686 17.8501 19.9486 18.4801 19.9486 19.2501V24.2301C19.9486 25.0001 20.5686 25.6201 21.3386 25.6201H24.2486V29.8901H12.1386C11.1886 29.8901 10.4186 30.6601 10.4186 31.6101V35.6601H7.70859C6.93859 35.6601 6.30859 36.2801 6.30859 37.0501V42.0301C6.30859 42.8001 6.93859 43.4201 7.70859 43.4201H15.0286C15.7886 43.4201 16.4186 42.8001 16.4186 42.0301V37.0501C16.4186 36.2801 15.7886 35.6601 15.0286 35.6601H11.9186V31.6101C11.9186 31.4901 12.0086 31.3901 12.1386 31.3901H24.2486V35.6601H21.3386C20.5686 35.6601 19.9486 36.2801 19.9486 37.0501V42.0301C19.9486 42.8001 20.5686 43.4201 21.3386 43.4201H28.6586C29.4286 43.4201 30.0486 42.8001 30.0486 42.0301V37.0501C30.0486 36.2801 29.4286 35.6601 28.6586 35.6601H25.7486V31.3901H37.8686C37.9886 31.3901 38.0886 31.4901 38.0886 31.6101V35.6601H34.9786C34.2086 35.6601 33.5786 36.2801 33.5786 37.0501V42.0301C33.5786 42.8001 34.2086 43.4201 34.9786 43.4201H42.2986C43.0686 43.4201 43.6886 42.8001 43.6886 42.0301V37.0501C43.6886 36.2801 43.0686 35.6601 42.2986 35.6601ZM14.9186 37.1601V41.9201H7.80859V37.1601H14.9186ZM28.5486 37.1601V41.9201H21.4486V37.1601H28.5486ZM21.4486 24.1201V19.3501H28.5486V24.1201H21.4486ZM42.1886 41.9201H35.0786V37.1601H42.1886V41.9201Z" fill="#8753D4"/>
<path d="M35.0781 37.1602H42.1881V41.9202H35.0781V37.1602Z" fill="#8753D4" fill-opacity="0.6"/>
<path d="M21.4492 37.1602H28.5492V41.9202H21.4492V37.1602Z" fill="#8753D4" fill-opacity="0.6"/>
<path d="M7.80859 37.1602H14.9186V41.9202H7.80859V37.1602Z" fill="#8753D4" fill-opacity="0.6"/>
<path d="M21.4492 19.3501H28.5492V24.1201H21.4492V19.3501Z" fill="#8753D4" fill-opacity="0.6"/>
</g>
<defs>
<clipPath id="clip0_362_6783">
<rect width="50" height="50" fill="white"/>
</clipPath>
</defs>
</svg>
