<svg width="50" height="50" viewBox="0 0 50 50" fill="none" xmlns="http://www.w3.org/2000/svg">
<g clip-path="url(#clip0_362_6696)">
<path d="M48.6902 10.286L39.7302 1.316C38.4102 0.00599611 36.2702 0.00599611 34.9501 1.316L21.8402 14.436C20.5202 15.746 20.5202 17.896 21.8402 19.206L24.5102 21.876L21.8902 24.496L19.2202 21.826C17.9502 20.546 15.7202 20.546 14.4502 21.826L1.33016 34.936C0.0201563 36.256 0.0201563 38.396 1.33016 39.716L10.3002 48.676C11.6102 49.996 13.7602 49.996 15.0702 48.676L28.1902 35.566C29.5002 34.246 29.5102 32.116 28.1902 30.786L25.5202 28.126L28.1402 25.506L30.8002 28.176C32.1202 29.486 34.2602 29.486 35.5802 28.176L48.6902 15.056C50.0102 13.736 50.0202 11.606 48.6902 10.286ZM27.4802 31.496C28.4102 32.426 28.4102 33.926 27.4802 34.856L14.3702 47.976C13.4402 48.896 11.9302 48.896 11.0002 47.976L2.04016 39.006C1.12016 38.086 1.12016 36.576 2.04016 35.646L15.1502 22.536C16.0802 21.606 17.5902 21.606 18.5202 22.536L21.1802 25.196L19.3102 27.076L18.5402 26.306C17.7302 25.486 16.3102 25.486 15.4902 26.306L5.81016 35.986C4.97016 36.826 4.97016 38.196 5.81016 39.036L10.9802 44.196C11.8202 45.046 13.1902 45.036 14.0302 44.196L23.7102 34.526C24.5502 33.676 24.5502 32.306 23.7102 31.466L22.9402 30.696L24.8102 28.826L27.4802 31.496ZM16.4202 31.686L18.3302 33.586C18.8002 34.066 19.5802 34.066 20.0502 33.586L22.2302 31.406L23.0002 32.176C23.4502 32.626 23.4502 33.366 23.0002 33.816L13.3202 43.496C12.8702 43.946 12.1402 43.946 11.6802 43.496L6.52016 38.326C6.07016 37.876 6.07016 37.146 6.52016 36.686L16.2002 27.006C16.6502 26.556 17.3802 26.556 17.8402 27.006L18.6102 27.776L16.4202 29.966C16.1902 30.196 16.0702 30.496 16.0702 30.826C16.0702 31.146 16.1902 31.456 16.4202 31.686ZM19.3402 32.886C19.2602 32.966 19.1202 32.966 19.0402 32.886L17.1302 30.976C17.0702 30.916 17.0702 30.856 17.0702 30.826C17.0702 30.786 17.0702 30.726 17.1302 30.666L30.6802 17.116C30.7402 17.056 30.8002 17.056 30.8402 17.056C30.8702 17.056 30.9402 17.056 30.9902 17.116L32.9002 19.026C32.9502 19.076 32.9602 19.146 32.9602 19.176C32.9602 19.206 32.9502 19.276 32.9002 19.326L19.3402 32.886ZM33.6002 18.316L31.7002 16.406C31.2402 15.946 30.4402 15.946 29.9802 16.406L27.7902 18.586L27.0302 17.826C26.5702 17.366 26.5702 16.636 27.0302 16.186L36.7001 6.506C37.1602 6.056 37.8902 6.046 38.3402 6.506L43.5102 11.666C43.9602 12.126 43.9602 12.856 43.5102 13.306L33.8302 22.986C33.3802 23.436 32.6402 23.436 32.1902 22.986L31.4202 22.216L33.6002 20.036C33.8302 19.806 33.9602 19.496 33.9602 19.176C33.9602 18.846 33.8302 18.546 33.6002 18.316ZM47.9902 14.356L34.8702 27.466C33.9502 28.386 32.4402 28.396 31.5102 27.466L28.8402 24.796L30.7202 22.926L31.4802 23.696C31.9102 24.116 32.4602 24.326 33.0102 24.326C33.5602 24.326 34.1202 24.116 34.5401 23.696L44.2201 14.016C45.0602 13.176 45.0602 11.806 44.2201 10.966L39.0502 5.796C38.2302 4.986 36.8102 4.986 36.0002 5.796L26.3202 15.476C25.4802 16.316 25.4802 17.686 26.3202 18.526L27.0902 19.296L25.2202 21.166L22.5502 18.506C21.6202 17.576 21.6202 16.066 22.5502 15.136L35.6602 2.026C36.5902 1.096 38.0902 1.096 39.0202 2.026L47.9902 10.986C48.9102 11.916 48.9202 13.426 47.9902 14.356Z" fill="#8753D4"/>
<path d="M47.9891 14.3561L34.8691 27.4661C33.9491 28.3861 32.4391 28.3961 31.5091 27.4661L28.8391 24.7961L30.7191 22.9261L31.4791 23.6961C31.9091 24.1161 32.4591 24.3261 33.0091 24.3261C33.5591 24.3261 34.1191 24.1161 34.5391 23.6961L44.2191 14.0161C45.0591 13.1761 45.0591 11.8061 44.2191 10.9661L39.0491 5.79611C38.2291 4.98611 36.8091 4.98611 35.9991 5.79611L26.3191 15.4761C25.4791 16.3161 25.4791 17.6861 26.3191 18.5261L27.0891 19.2961L25.2191 21.1661L22.5491 18.5061C21.6191 17.5761 21.6191 16.0661 22.5491 15.1361L35.6591 2.02611C36.5891 1.09611 38.0891 1.09611 39.0191 2.02611L47.9891 10.9861C48.9091 11.9161 48.9191 13.4261 47.9891 14.3561Z" fill="#8753D4" fill-opacity="0.6"/>
<path d="M27.4816 34.8559L14.3716 47.9759C13.4416 48.8959 11.9316 48.8959 11.0016 47.9759L2.04156 39.0059C1.12156 38.0859 1.12156 36.5759 2.04156 35.6459L15.1516 22.5359C16.0816 21.6059 17.5916 21.6059 18.5216 22.5359L21.1816 25.1959L19.3116 27.0759L18.5416 26.3059C17.7316 25.4859 16.3116 25.4859 15.4916 26.3059L5.81156 35.9859C4.97156 36.8259 4.97156 38.1959 5.81156 39.0359L10.9816 44.1959C11.8216 45.0459 13.1916 45.0359 14.0316 44.1959L23.7116 34.5259C24.5516 33.6759 24.5516 32.3059 23.7116 31.4659L22.9416 30.6959L24.8116 28.8259L27.4816 31.4959C28.4116 32.4259 28.4116 33.9259 27.4816 34.8559Z" fill="#8753D4" fill-opacity="0.6"/>
<path d="M14.0056 14.695C14.2006 14.89 14.5176 14.89 14.7126 14.695C14.9076 14.5 14.9076 14.183 14.7126 13.988L12.9626 12.238C12.7676 12.043 12.4506 12.043 12.2556 12.238C12.0606 12.433 12.0606 12.75 12.2556 12.945L14.0056 14.695Z" fill="#8753D4"/>
<path d="M7.95202 20.9151L10.342 21.5561C10.981 21.7261 11.243 20.7621 10.602 20.5901L8.21202 19.9491C7.94402 19.8771 7.67102 20.0351 7.59902 20.3031C7.52802 20.5701 7.68602 20.8441 7.95202 20.9151Z" fill="#8753D4"/>
<path d="M20.6072 10.5841C20.6792 10.8501 20.9532 11.0091 21.2202 10.9381C21.4872 10.8671 21.6452 10.5921 21.5742 10.3261L20.9332 7.93608C20.8612 7.66908 20.5912 7.51208 20.3202 7.58208C20.0532 7.65308 19.8952 7.92808 19.9662 8.19408L20.6072 10.5841Z" fill="#8753D4"/>
<path d="M36.0251 35.303C35.8301 35.108 35.5131 35.108 35.3181 35.303C35.1231 35.498 35.1231 35.815 35.3181 36.01L37.0681 37.76C37.2631 37.955 37.5801 37.955 37.7751 37.76C37.9701 37.565 37.9701 37.248 37.7751 37.053L36.0251 35.303Z" fill="#8753D4"/>
<path d="M42.0776 29.0822L39.6876 28.4422C39.4256 28.3722 39.1476 28.5292 39.0756 28.7962C39.0046 29.0632 39.1626 29.3372 39.4296 29.4082C41.9386 30.0742 41.8266 30.0652 41.9486 30.0652C42.1696 30.0652 42.3716 29.9182 42.4316 29.6942C42.5036 29.4282 42.3456 29.1542 42.0776 29.0822Z" fill="#8753D4"/>
<path d="M29.4254 39.4131C29.3534 39.1461 29.0834 38.9871 28.8124 39.0591C28.5454 39.1301 28.3874 39.4051 28.4584 39.6711L29.0994 42.0611C29.1714 42.3271 29.4454 42.4861 29.7124 42.4151C29.9794 42.3441 30.1374 42.0691 30.0664 41.8031L29.4254 39.4131Z" fill="#8753D4"/>
</g>
<defs>
<clipPath id="clip0_362_6696">
<rect width="50" height="50" fill="white"/>
</clipPath>
</defs>
</svg>
