<svg width="50" height="50" viewBox="0 0 50 50" fill="none" xmlns="http://www.w3.org/2000/svg">
<path d="M25.0025 6.81494C23.2154 6.81494 21.7617 8.26864 21.7617 10.0557C21.7617 11.8427 23.2154 13.2964 25.0025 13.2964C26.7895 13.2964 28.2432 11.8427 28.2432 10.0557C28.2432 8.26864 26.7895 6.81494 25.0025 6.81494ZM25.0025 12.3705C23.7247 12.3705 22.6876 11.3335 22.6876 10.0557C22.6876 8.78716 23.7247 7.74087 25.0025 7.74087C26.2802 7.74087 27.3173 8.78716 27.3173 10.0557C27.3173 11.3335 26.2802 12.3705 25.0025 12.3705Z" fill="#8753D4"/>
<path d="M12.5923 32.9167C10.8053 32.9167 9.35156 34.3705 9.35156 36.1575C9.35156 37.9445 10.8053 39.3982 12.5923 39.3982C14.3793 39.3982 15.833 37.9445 15.833 36.1575C15.833 34.3705 14.3793 32.9167 12.5923 32.9167ZM12.5923 38.4723C11.3145 38.4723 10.2775 37.4353 10.2775 36.1575C10.2775 34.8797 11.3145 33.8427 12.5923 33.8427C13.8608 33.8427 14.9071 34.8797 14.9071 36.1575C14.9071 37.4353 13.8608 38.4723 12.5923 38.4723Z" fill="#8753D4"/>
<path d="M37.8791 28.4446V26.7409C37.8791 25.0557 36.5179 23.6946 34.8328 23.6946H25.4716V21.5649C30.6939 21.3149 34.6291 16.9909 34.6291 11.9538C34.6291 6.63902 30.3142 2.31494 24.9994 2.31494C19.6939 2.31494 15.3698 6.63902 15.3698 11.9538C15.3698 17.1668 19.4624 21.3149 24.5365 21.5649V23.6946H15.1661C13.4902 23.6946 12.1291 25.0557 12.1291 26.7409V28.4446C7.0272 28.6853 2.95312 32.8983 2.95312 38.0557C2.95312 43.4168 7.31424 47.6853 12.5828 47.6853C17.9809 47.6853 22.2216 43.2964 22.2216 38.0557C22.2216 32.8983 18.1476 28.6853 13.055 28.4446V26.7409C13.055 25.5742 13.9994 24.6205 15.1661 24.6205H34.8328C35.9994 24.6205 36.9531 25.5742 36.9531 26.7409V28.4446C31.8605 28.6853 27.7865 32.8983 27.7865 38.0557C27.7865 43.3983 32.1198 47.6853 37.4161 47.6853C42.6846 47.6853 47.0457 43.4075 47.0457 38.0557C47.0457 32.8983 42.9716 28.6853 37.8791 28.4446ZM12.5828 46.7594C10.2494 46.7594 8.00868 45.8057 6.36979 44.139C6.51794 42.639 7.75868 41.4909 9.29572 41.4909H15.8883C17.4068 41.4909 18.6476 42.639 18.805 44.1298C17.1568 45.8242 14.9531 46.7594 12.5828 46.7594ZM21.2957 38.0557C21.2957 39.9446 20.6753 41.7594 19.555 43.2594C19.055 41.6946 17.6105 40.5649 15.8883 40.5649H9.29572C7.55498 40.5649 6.11053 41.6946 5.61053 43.2594C4.49942 41.7686 3.87905 39.9446 3.87905 38.0557C3.87905 33.2501 7.78646 29.3427 12.5828 29.3427C17.3883 29.3427 21.2957 33.2501 21.2957 38.0557ZM18.0272 17.1575C16.9068 15.6668 16.2957 13.852 16.2957 11.9538C16.2957 7.14827 20.2031 3.24087 24.9994 3.24087C29.7957 3.24087 33.7031 7.14827 33.7031 11.9538C33.7031 13.8427 33.092 15.6575 31.9716 17.1575C31.4716 15.5927 30.0272 14.4631 28.2957 14.4631H21.7031C19.9716 14.4631 18.5272 15.5927 18.0272 17.1575ZM18.7865 18.0372C18.9346 16.5372 20.1753 15.389 21.7031 15.389H28.2957C29.8235 15.389 31.0642 16.5372 31.2216 18.0279C29.5642 19.7223 27.3698 20.6575 24.9994 20.6575C22.6661 20.6575 20.4161 19.7038 18.7865 18.0372ZM37.4161 46.7594C35.0828 46.7594 32.8328 45.8057 31.2031 44.139C31.3513 42.639 32.592 41.4909 34.1198 41.4909H40.7124C42.2402 41.4909 43.4809 42.639 43.6291 44.1298C41.9809 45.8242 39.7865 46.7594 37.4161 46.7594ZM40.7124 40.5649H34.1198C32.3883 40.5649 30.9346 41.6946 30.4439 43.2594C29.3235 41.7686 28.7124 39.9538 28.7124 38.0557C28.7124 33.2501 32.6105 29.3427 37.4161 29.3427C42.2124 29.3427 46.1198 33.2501 46.1198 38.0557C46.1198 39.9446 45.5087 41.7594 44.3883 43.2594C43.8883 41.6946 42.4346 40.5649 40.7124 40.5649Z" fill="#8753D4"/>
<path d="M43.6369 44.1296C41.9887 45.8241 39.7943 46.7592 37.4239 46.7592C35.0906 46.7592 32.8406 45.8055 31.2109 44.1389C31.3591 42.6389 32.5998 41.4907 34.1276 41.4907H40.7202C42.248 41.4907 43.4887 42.6389 43.6369 44.1296Z" fill="#8753D4" fill-opacity="0.6"/>
<path d="M18.8102 44.1296C17.162 45.8241 14.9583 46.7592 12.588 46.7592C10.2546 46.7592 8.01389 45.8055 6.375 44.1389C6.52315 42.6389 7.76389 41.4907 9.30093 41.4907H15.8935C17.412 41.4907 18.6528 42.6389 18.8102 44.1296Z" fill="#8753D4" fill-opacity="0.6"/>
<path d="M12.5961 38.4722C13.8745 38.4722 14.9109 37.4358 14.9109 36.1574C14.9109 34.879 13.8745 33.8426 12.5961 33.8426C11.3176 33.8426 10.2812 34.879 10.2812 36.1574C10.2812 37.4358 11.3176 38.4722 12.5961 38.4722Z" fill="#8753D4" fill-opacity="0.6"/>
<path d="M25.0101 12.3704C26.2886 12.3704 27.3249 11.334 27.3249 10.0555C27.3249 8.7771 26.2886 7.74072 25.0101 7.74072C23.7317 7.74072 22.6953 8.7771 22.6953 10.0555C22.6953 11.334 23.7317 12.3704 25.0101 12.3704Z" fill="#8753D4" fill-opacity="0.6"/>
<path d="M31.2242 18.0278C29.5668 19.7222 27.3724 20.6574 25.002 20.6574C22.6687 20.6574 20.4187 19.7037 18.7891 18.0371C18.9372 16.5371 20.178 15.3889 21.7057 15.3889H28.2983C29.8261 15.3889 31.0668 16.5371 31.2242 18.0278Z" fill="#8753D4" fill-opacity="0.6"/>
<path d="M37.4126 32.9167C35.6256 32.9167 34.1719 34.3705 34.1719 36.1575C34.1719 37.9445 35.6256 39.3982 37.4126 39.3982C39.1997 39.3982 40.6534 37.9445 40.6534 36.1575C40.6534 34.3705 39.1997 32.9167 37.4126 32.9167ZM37.4126 38.4723C36.1348 38.4723 35.0978 37.4353 35.0978 36.1575C35.0978 34.8797 36.1348 33.8427 37.4126 33.8427C38.6904 33.8427 39.7274 34.8797 39.7274 36.1575C39.7274 37.4353 38.6904 38.4723 37.4126 38.4723Z" fill="#8753D4"/>
<path d="M37.4164 38.4723C38.6948 38.4723 39.7312 37.436 39.7312 36.1575C39.7312 34.8791 38.6948 33.8427 37.4164 33.8427C36.1379 33.8427 35.1016 34.8791 35.1016 36.1575C35.1016 37.436 36.1379 38.4723 37.4164 38.4723Z" fill="#8753D4" fill-opacity="0.6"/>
</svg>
